<?xml version="1.0" encoding="UTF-8" standalone="no"?>
<svg
   xmlns:osb="http://www.openswatchbook.org/uri/2009/osb"
   xmlns:dc="http://purl.org/dc/elements/1.1/"
   xmlns:cc="http://creativecommons.org/ns#"
   xmlns:rdf="http://www.w3.org/1999/02/22-rdf-syntax-ns#"
   xmlns:svg="http://www.w3.org/2000/svg"
   xmlns="http://www.w3.org/2000/svg"
   xmlns:sodipodi="http://sodipodi.sourceforge.net/DTD/sodipodi-0.dtd"
   xmlns:inkscape="http://www.inkscape.org/namespaces/inkscape"
   fill="#000000"
   height="48"
   viewBox="0 0 24 24"
   width="48"
   id="svg2"
   version="1.1"
   inkscape:version="0.91 r13725"
   sodipodi:docname="account_circle.svg">
  <metadata
     id="metadata12">
    <rdf:RDF>
      <cc:Work
         rdf:about="">
        <dc:format>image/svg+xml</dc:format>
        <dc:type
           rdf:resource="http://purl.org/dc/dcmitype/StillImage" />
        <dc:title></dc:title>
      </cc:Work>
    </rdf:RDF>
  </metadata>
  <defs
     id="defs10">
    <linearGradient
       id="linearGradient5568"
       osb:paint="solid">
      <stop
         style="stop-color:#000000;stop-opacity:1;"
         offset="0"
         id="stop5570" />
    </linearGradient>
  </defs>
  <sodipodi:namedview
     pagecolor="#ff54ff"
     bordercolor="#666666"
     borderopacity="1"
     objecttolerance="10"
     gridtolerance="10"
     guidetolerance="10"
     inkscape:pageopacity="0.35294118"
     inkscape:pageshadow="2"
     inkscape:window-width="1920"
     inkscape:window-height="1177"
     id="namedview8"
     showgrid="false"
     inkscape:zoom="9.8333333"
     inkscape:cx="-9.5229884"
     inkscape:cy="27.819139"
     inkscape:window-x="1912"
     inkscape:window-y="-8"
     inkscape:window-maximized="1"
     inkscape:current-layer="svg2" />
  <path
     d="M 11.244141,0.59375 C 9.9858606,0.79850208 8.7245598,1.0666989 7.5571104,1.5936798 6.840713,1.8952126 6.163234,2.2833886 5.5214844,2.7207031 4.9667466,3.1164591 4.439971,3.5523412 3.9627032,4.0391761 2.9782026,5.037588 2.1658124,6.2086458 1.6046823,7.4950044 1.2718571,8.2573463 1.0145054,9.0537417 0.85702148,9.8710425 0.7093168,10.595286 0.64103376,11.335037 0.63642723,12.07381 c -0.006708,1.388937 0.25185258,2.774781 0.72310337,4.079648 0.4814218,1.274388 1.208149,2.441821 2.0174225,3.532089 0.093607,0.08203 0.035535,-0.147179 0.076172,-0.1875 0.094216,-0.529951 0.8136209,0.977563 1.0114337,0.467412 0.2691725,-0.9784 -0.1569776,-3.999179 0.2701888,-4.920002 0.5005534,-1.02536 1.2442418,-1.955332 2.2226842,-2.558875 0.7951094,-0.498426 1.6591845,-0.871915 2.4976464,-1.289316 0.3587965,-0.11367 0.9042648,-0.35743 0.7636718,-0.826172 C 9.8560982,9.8683123 9.317584,9.4860919 9.0957031,8.8886719 8.8038316,8.2124113 8.761813,7.4502163 8.8694882,6.7287309 9.0619714,5.6782284 9.8633621,4.8097666 10.828125,4.3925781 c 0.787462,-0.3464471 1.715126,-0.3747584 2.511869,-0.042339 0.319149,0.1286836 0.617414,0.3078697 0.882976,0.5268476 0.403091,0.3323827 0.730837,0.7564443 0.94191,1.2347276 0.287689,0.6768919 0.31832,1.4453563 0.165198,2.1596703 -0.107926,0.4610749 -0.30951,0.8952256 -0.585937,1.2792968 -0.278282,0.4071469 -0.7346,0.8255706 -0.570313,1.3710936 0.141579,0.471087 0.665717,0.636953 1.085245,0.775452 0.488629,0.130565 0.93804,0.365287 1.403036,0.558532 0.761045,0.343993 1.505042,0.763894 2.08562,1.374432 0.625415,0.617767 0.466551,5.236484 0.839334,6.029038 0.276099,0.609761 -0.07295,-0.0077 0.136633,0.627559 0.157689,0.514569 1.370823,-1.507372 1.062167,-1.048314 -0.353507,0.540478 -0.908603,0.894997 -1.40891,1.284864 -1.494433,1.098135 -3.154964,1.981225 -4.929088,2.53093 -0.77883,0.248684 -1.589947,0.420137 -2.41107,0.409587 C 10.660012,23.477537 9.3165464,23.09897 8.0321827,22.634176 7.146815,22.326682 6.2861974,21.936835 5.5033216,21.418134 4.9206456,21.052072 4.3768455,20.625377 3.8808594,20.148438 L 3.4160156,19.716797 c 0.5265623,0.521877 1.0674994,1.030821 1.6580976,1.480406 1.2433969,0.981021 2.7127918,1.655497 4.2463169,2.036251 1.1063159,0.282825 2.2516439,0.443762 3.3948659,0.370481 0.85693,-0.05012 1.707261,-0.193642 2.534812,-0.421312 0.720896,-0.205179 1.421453,-0.48147 2.092189,-0.815615 1.072823,-0.543842 2.062187,-1.252385 2.911771,-2.104561 1.063484,-1.056709 1.920868,-2.321173 2.505698,-3.7019 0.388182,-0.969798 0.650158,-1.990793 0.75959,-3.030246 0.127074,-1.028063 0.120373,-2.072958 -0.02138,-3.099181 C 23.20063,8.2530067 22.20942,6.1906235 20.766901,4.539553 19.727047,3.3481915 18.436556,2.378628 17.001234,1.7145079 16.274469,1.3732861 15.508955,1.1187152 14.727588,0.9359812 13.677536,0.69693703 12.599853,0.59396042 11.523836,0.59080584 Z m 2.916015,10.654297 -0.002,-0.01758 z"
     id="path4"
     inkscape:connector-curvature="0"
     style="fill:none;fill-opacity:1;fill-rule:evenodd;stroke:#fffcff;stroke-width:2.29999995;stroke-miterlimit:4;stroke-dasharray:none;stroke-opacity:1"
     sodipodi:nodetypes="cssssssssssscssscscscccccccccccccccccccccccccccccccccc" />
  <path
     d="M0 0h24v24H0z"
     fill="none"
     id="path6" />
</svg>
