<?xml version="1.0" encoding="UTF-8" standalone="no"?>
<svg
   xmlns:dc="http://purl.org/dc/elements/1.1/"
   xmlns:cc="http://creativecommons.org/ns#"
   xmlns:rdf="http://www.w3.org/1999/02/22-rdf-syntax-ns#"
   xmlns:svg="http://www.w3.org/2000/svg"
   xmlns="http://www.w3.org/2000/svg"
   xmlns:sodipodi="http://sodipodi.sourceforge.net/DTD/sodipodi-0.dtd"
   xmlns:inkscape="http://www.inkscape.org/namespaces/inkscape"
   fill="#000000"
   height="48"
   viewBox="0 0 24 24"
   width="48"
   id="svg2"
   version="1.1"
   inkscape:version="0.91 r13725"
   sodipodi:docname="save.svg">
  <metadata
     id="metadata12">
    <rdf:RDF>
      <cc:Work
         rdf:about="">
        <dc:format>image/svg+xml</dc:format>
        <dc:type
           rdf:resource="http://purl.org/dc/dcmitype/StillImage" />
        <dc:title></dc:title>
      </cc:Work>
    </rdf:RDF>
  </metadata>
  <defs
     id="defs10" />
  <sodipodi:namedview
     pagecolor="#ffffff"
     bordercolor="#666666"
     borderopacity="1"
     objecttolerance="10"
     gridtolerance="10"
     guidetolerance="10"
     inkscape:pageopacity="0"
     inkscape:pageshadow="2"
     inkscape:window-width="1346"
     inkscape:window-height="740"
     id="namedview8"
     showgrid="false"
     inkscape:zoom="4.9166667"
     inkscape:cx="24"
     inkscape:cy="24"
     inkscape:window-x="0"
     inkscape:window-y="67"
     inkscape:window-maximized="0"
     inkscape:current-layer="svg2" />
  <path
     d="M0 0h24v24H0z"
     fill="none"
     id="path4" />
  <path
     d="m 18.129944,0.96610169 -14.7118649,0 c -1.3608474,0 -2.45197741,1.10338981 -2.45197741,2.45197741 l 0,17.1638419 c 0,1.348587 1.09113001,2.451977 2.45197741,2.451977 l 17.1638419,0 c 1.348587,0 2.451977,-1.10339 2.451977,-2.451977 l 0,-14.7118645 -4.903954,-4.90395481 z M 12,20.581921 c -2.0351413,0 -3.6779661,-1.642825 -3.6779661,-3.677966 0,-2.035141 1.6428248,-3.677967 3.6779661,-3.677967 2.035141,0 3.677966,1.642826 3.677966,3.677967 0,2.035141 -1.642825,3.677966 -3.677966,3.677966 z m 3.677966,-12.2598871 -12.2598869,0 0,-4.9039548 12.2598869,0 0,4.9039548 z"
     id="path6"
     inkscape:connector-curvature="0" />
</svg>
