<?xml version="1.0" encoding="UTF-8" standalone="no"?>
<svg
   xmlns:dc="http://purl.org/dc/elements/1.1/"
   xmlns:cc="http://creativecommons.org/ns#"
   xmlns:rdf="http://www.w3.org/1999/02/22-rdf-syntax-ns#"
   xmlns:svg="http://www.w3.org/2000/svg"
   xmlns="http://www.w3.org/2000/svg"
   xmlns:sodipodi="http://sodipodi.sourceforge.net/DTD/sodipodi-0.dtd"
   xmlns:inkscape="http://www.inkscape.org/namespaces/inkscape"
   fill="#000000"
   height="48"
   viewBox="0 0 24 24"
   width="48"
   id="svg2"
   version="1.1"
   inkscape:version="0.91 r13725"
   sodipodi:docname="temperature.svg"
   shape-rendering="crispEdges">
  <metadata
     id="metadata12">
    <rdf:RDF>
      <cc:Work
         rdf:about="">
        <dc:format>image/svg+xml</dc:format>
        <dc:type
           rdf:resource="http://purl.org/dc/dcmitype/StillImage" />
        <dc:title></dc:title>
      </cc:Work>
    </rdf:RDF>
  </metadata>
  <defs
     id="defs10" />
  <sodipodi:namedview
     pagecolor="#ffffff"
     bordercolor="#66ede5"
     borderopacity="1"
     objecttolerance="10"
     gridtolerance="10"
     guidetolerance="10"
     inkscape:pageopacity="0"
     inkscape:pageshadow="2"
     inkscape:window-width="1920"
     inkscape:window-height="1177"
     id="namedview8"
     showgrid="false"
     inkscape:zoom="4.9166667"
     inkscape:cx="24"
     inkscape:cy="24"
     inkscape:window-x="1912"
     inkscape:window-y="-8"
     inkscape:window-maximized="1"
     inkscape:current-layer="svg2"
     inkscape:showpageshadow="true"
     showborder="true"
     borderlayer="true" />
  <path
     d="M0 0h24v24H0z"
     fill="none"
     id="path4" />
  <g
     id="g6"
     transform="matrix(0.03861626,0,0,0.02609659,-6.7251054,-1.1237598)"
     inkscape:transform-center-x="23.385185"
     inkscape:transform-center-y="-3.3864681">
    <g
       id="g8">
      <g
         id="g10">
        <path
           d="m 530.4,720.4 c 0,-3 0,-3 0,-6.1 l 0,-153.1 c 0,-18.4 -12.2,-30.6 -30.6,-30.6 -18.4,0 -30.6,12.2 -30.6,30.6 l 0,153.1 c 0,3 0,3 0,6.1 -36.8,12.3 -61.2,46 -61.2,85.7 0,52 39.9,91.9 91.9,91.9 52,0 91.9,-39.9 91.9,-91.9 -0.1,-39.8 -24.6,-73.4 -61.4,-85.7 z"
           id="path12"
           inkscape:connector-curvature="0" />
        <path
           d="m 622.3,668.3 c 0,-6.1 0,-9.1 0,-15.4 l 0,-520.4 C 622.3,65.1 567.2,10 499.8,10 432.4,10 377.3,65.1 377.3,132.5 l 0,520.5 c 0,6.1 0,9.1 0,15.4 -36.8,33.6 -61.2,82.6 -61.2,137.8 0,101 82.6,183.8 183.8,183.8 101.2,0 183.8,-82.6 183.8,-183.8 C 683.6,751 659.1,702 622.3,668.3 Z M 499.8,928.7 c -67.4,0 -122.5,-55.1 -122.5,-122.5 0,-46 24.5,-85.7 61.2,-107.1 l 0,-566.6 c 0,-33.6 27.5,-61.2 61.2,-61.2 33.6,0 61.2,27.5 61.2,61.2 l 0,566.4 c 36.8,21.5 61.1,61.2 61.1,107.1 0.3,67.4 -54.8,122.7 -122.2,122.7 z"
           id="path14"
           inkscape:connector-curvature="0" />
      </g>
    </g>
    <g
       id="g16" />
    <g
       id="g18" />
    <g
       id="g20" />
    <g
       id="g22" />
    <g
       id="g24" />
    <g
       id="g26" />
    <g
       id="g28" />
    <g
       id="g30" />
    <g
       id="g32" />
    <g
       id="g34" />
    <g
       id="g36" />
    <g
       id="g38" />
    <g
       id="g40" />
    <g
       id="g42" />
    <g
       id="g44" />
  </g>
</svg>
